<?xml version="1.0" encoding="UTF-8"?>
<svg id="Layer_2" data-name="Layer 2" xmlns="http://www.w3.org/2000/svg" viewBox="0 0 451.5 121.55">
  <defs>
    <style>
      .cls-1 {
        fill: #012c3c;
      }

      .cls-2 {
        fill: #fff;
      }

      .cls-3 {
        fill: #ec2726;
      }
    </style>
  </defs>
  <g id="Layer_1-2" data-name="Layer 1">
    <rect class="cls-1" x="173.67" y="80.14" width="277.83" height="41.41" rx="20.71" ry="20.71"/>
    <path class="cls-3" d="M35.83.34c4.77-.69,9.65-.35,14.21,1.23,3.68,1.28,7.21,3.45,9.24,6.78,3.1,5.09,2.06,11.64.21,17.31-5.48,16.8-17.17,29.74-26,44.69-2.74,4.64-5.86,9.64-5.94,15.17-.12,4.82,3.78,8.51,8.58,6.98,3.66-1.11,6.49-4.29,8.87-7.27,14.13-18.77,24.39-40.35,40.27-57.73,6.93-7.13,16.58-8.6,22.15.85,1.41,2.33,2.38,4.96,3.15,7.56,3.6,12.8,5.63,26,8.87,38.9,1.86,7.76,5.58,19.56,15.68,17.72,10.07-1.84,20.76-20.48,16.33-29.92-3.03-6.46-12.6-9.84-17.25-15.55-7.84-9.63-17.11-30.56-7.1-41.6,5.46-6.2,15.59-7.07,22.49-2.88,4.24,2.51,7.1,6.75,8.84,11.34,12.41,37.59-2.85,103.76-45.56,107.56-13.88.78-24.82-6.88-22.99-21.95,1.43-11.79,6.64-22.31,11.69-32.89,2.14-4.48,7.86-16.93,1.56-20.62-7.39-4.33-15.01,9.51-17.97,13.99-11.34,17.14-21.42,35.68-34.37,51.68-5.77,7.14-14.15,11.44-23.16,7.26-5.81-2.7-9.88-8.72-10.68-15.04-1.75-13.88,1.76-27.94,6.11-41.02,4.83-14.52,10.5-28.59,13.15-43.73.63-3.61,1.41-9.22-2.1-11.72-1.02-.72-2.26-1.03-3.51-.98-6.65.32-11.93,6.36-15.87,11.08-4.06,4.86-7.29,10.65-8.04,17.02-.26,2.2-.16,4.6,1.15,6.39,1.58,2.16,4.45,2.83,6.74,4.22.98.6,1.95,1.54,1.85,2.68-.11,1.15-1.27,1.94-2.18,2.52-1.46.94-3.01,1.74-4.63,2.37s-3.52,1.17-5.23.65c-1.49-.46-2.65-1.67-3.33-3.07s-.91-2.97-1.01-4.52c-.25-4.28.56-8.56,1.83-12.65C5.26,22.28,11.99,11.88,21.67,5.66,25.93,2.92,30.82,1.06,35.83.34Z"/>
    <g>
      <path class="cls-3" d="M178.65,34.22v-.24c0-17.97,12.8-32.77,31.12-32.77,21.02,0,30.65,16.32,30.65,34.18,0,1.41-.12,3.05-.23,4.7h-43.81c1.76,8.1,7.4,12.33,15.38,12.33,5.99,0,10.34-1.88,15.27-6.46l10.22,9.04c-5.87,7.28-14.33,11.74-25.72,11.74-18.91,0-32.88-13.27-32.88-32.53ZM223.04,28.93c-1.06-7.99-5.75-13.39-13.27-13.39s-12.21,5.28-13.62,13.39h26.89Z"/>
      <path class="cls-3" d="M249.93,47.26v-.24c0-13.74,10.45-20.08,25.37-20.08,6.34,0,10.92,1.06,15.38,2.58v-1.06c0-7.4-4.58-11.51-13.51-11.51-6.81,0-11.63,1.29-17.38,3.41l-4.46-13.62c6.93-3.05,13.74-5.05,24.43-5.05,9.75,0,16.79,2.58,21.26,7.05,4.7,4.7,6.81,11.63,6.81,20.08v36.53h-17.26v-6.81c-4.35,4.82-10.34,7.99-19.03,7.99-11.86,0-21.61-6.81-21.61-19.26ZM290.92,43.15v-3.17c-3.05-1.41-7.05-2.35-11.39-2.35-7.63,0-12.33,3.05-12.33,8.69v.23c0,4.82,3.99,7.63,9.75,7.63,8.34,0,13.98-4.58,13.98-11.04Z"/>
      <path class="cls-3" d="M315.23,2.39h18.91l14.09,42.16,14.21-42.16h18.56l-24.78,63.42h-16.21l-24.78-63.42Z"/>
      <path class="cls-3" d="M384.75,34.22v-.24c0-17.97,12.8-32.77,31.12-32.77,21.02,0,30.65,16.32,30.65,34.18,0,1.41-.12,3.05-.23,4.7h-43.81c1.76,8.1,7.4,12.33,15.38,12.33,5.99,0,10.34-1.88,15.27-6.46l10.22,9.04c-5.87,7.28-14.33,11.74-25.72,11.74-18.91,0-32.88-13.27-32.88-32.53ZM429.14,28.93c-1.06-7.99-5.75-13.39-13.27-13.39s-12.21,5.28-13.62,13.39h26.89Z"/>
    </g>
    <g>
      <path class="cls-2" d="M193.22,108.28l2.01-3.09c1.79,1.3,3.67,1.98,5.22,1.98,1.36,0,1.98-.49,1.98-1.24v-.06c0-1.02-1.61-1.36-3.43-1.92-2.32-.68-4.94-1.76-4.94-4.97v-.06c0-3.37,2.72-5.25,6.05-5.25,2.1,0,4.38.71,6.18,1.91l-1.79,3.24c-1.64-.96-3.27-1.54-4.48-1.54s-1.73.49-1.73,1.14v.06c0,.93,1.58,1.36,3.37,1.98,2.32.77,5,1.88,5,4.91v.06c0,3.68-2.75,5.34-6.33,5.34-2.32,0-4.91-.77-7.1-2.5Z"/>
      <path class="cls-2" d="M221.57,102.28v-.06c0-4.76,3.83-8.62,8.99-8.62s8.93,3.8,8.93,8.56v.06c0,4.76-3.83,8.62-8.99,8.62s-8.93-3.8-8.93-8.55ZM234.85,102.28v-.06c0-2.44-1.76-4.57-4.35-4.57s-4.29,2.07-4.29,4.51v.06c0,2.44,1.76,4.57,4.35,4.57s4.29-2.07,4.29-4.51Z"/>
      <path class="cls-2" d="M255.45,87.92h4.69v22.55h-4.69v-22.55Z"/>
      <path class="cls-2" d="M276.79,104.63v-10.72h4.69v9.23c0,2.22,1.05,3.37,2.84,3.37s2.93-1.14,2.93-3.37v-9.23h4.69v16.55h-4.69v-2.35c-1.08,1.39-2.47,2.66-4.85,2.66-3.55,0-5.62-2.35-5.62-6.15Z"/>
      <path class="cls-2" d="M309.28,105.77v-7.84h-1.98v-4.02h1.98v-4.23h4.69v4.23h3.89v4.02h-3.89v7.07c0,1.08.46,1.61,1.51,1.61.86,0,1.64-.22,2.32-.59v3.77c-.99.59-2.13.96-3.71.96-2.87,0-4.82-1.14-4.82-4.97Z"/>
      <path class="cls-2" d="M333.77,87.92h4.94v4.17h-4.94v-4.17ZM333.9,93.91h4.69v16.55h-4.69v-16.55Z"/>
      <path class="cls-2" d="M354.56,102.28v-.06c0-4.76,3.83-8.62,8.99-8.62s8.93,3.8,8.93,8.56v.06c0,4.76-3.83,8.62-8.99,8.62s-8.93-3.8-8.93-8.55ZM367.84,102.28v-.06c0-2.44-1.76-4.57-4.35-4.57s-4.29,2.07-4.29,4.51v.06c0,2.44,1.76,4.57,4.35,4.57s4.29-2.07,4.29-4.51Z"/>
      <path class="cls-2" d="M388.22,93.91h4.69v2.35c1.08-1.39,2.47-2.66,4.85-2.66,3.55,0,5.62,2.35,5.62,6.15v10.72h-4.69v-9.23c0-2.22-1.05-3.37-2.84-3.37s-2.93,1.14-2.93,3.37v9.23h-4.69v-16.55Z"/>
      <path class="cls-2" d="M418.52,108.28l2.01-3.09c1.79,1.3,3.67,1.98,5.22,1.98,1.36,0,1.98-.49,1.98-1.24v-.06c0-1.02-1.61-1.36-3.43-1.92-2.32-.68-4.94-1.76-4.94-4.97v-.06c0-3.37,2.72-5.25,6.05-5.25,2.1,0,4.38.71,6.18,1.91l-1.79,3.24c-1.64-.96-3.27-1.54-4.48-1.54s-1.73.49-1.73,1.14v.06c0,.93,1.58,1.36,3.37,1.98,2.32.77,5,1.88,5,4.91v.06c0,3.68-2.75,5.34-6.33,5.34-2.32,0-4.91-.77-7.1-2.5Z"/>
    </g>
  </g>
</svg>